<svg viewBox="0 0 9 10" fill="none" xmlns="http://www.w3.org/2000/svg">
<path d="M4.13905 0.896004C1.87465 0.896004 0.0380554 2.73231 0.0380554 4.99711C0.0380554 6.80901 1.21295 8.3462 2.84285 8.8886C3.04755 8.9265 3.11386 8.7994 3.11386 8.6914V7.92791C1.97306 8.17611 1.73556 7.444 1.73556 7.444C1.54896 6.97 1.27995 6.8439 1.27995 6.8439C0.90775 6.5893 1.30836 6.5948 1.30836 6.5948C1.72016 6.6235 1.93685 7.01751 1.93685 7.01751C2.30245 7.64431 2.89615 7.4632 3.13025 7.3582C3.16675 7.0934 3.27305 6.91231 3.39065 6.81011C2.47985 6.70581 1.52225 6.3542 1.52225 4.7831C1.52225 4.3351 1.68256 3.9694 1.94466 3.6823C1.90236 3.5788 1.76186 3.1615 1.98466 2.5969C1.98466 2.5969 2.32915 2.4869 3.11285 3.0173C3.43985 2.9264 3.79055 2.88091 4.13905 2.87921C4.48765 2.88091 4.83865 2.9264 5.16645 3.0173C5.94935 2.4869 6.29315 2.5969 6.29315 2.5969C6.51635 3.1619 6.37585 3.5791 6.33355 3.6823C6.59665 3.9694 6.75556 4.3354 6.75556 4.7831C6.75556 6.3583 5.79626 6.70521 4.88306 6.80671C5.03006 6.93381 5.16435 7.1833 5.16435 7.566V8.6914C5.16435 8.8004 5.22995 8.92861 5.43815 8.88831C7.06655 8.34521 8.24015 6.80841 8.24015 4.99711C8.24015 2.73231 6.40396 0.896004 4.13916 0.896004H4.13905V0.896004Z" fill="var(--c06)"/>
</svg>
