<svg  viewBox="0 0 9 7" fill="none" xmlns="http://www.w3.org/2000/svg">
<path fill-rule="evenodd" clip-rule="evenodd" d="M4.36693 0.447266C3.97703 0.447266 3.63104 0.461773 3.25874 0.514873C2.94134 0.560073 2.62503 0.652572 2.33613 0.741572C1.59273 0.970572 0.635229 1.55207 0.152629 2.06947C-0.233871 2.48377 0.174132 3.10077 0.702532 2.92807C0.848332 2.88047 0.917532 2.77947 1.03083 2.67987C1.65353 2.13187 2.51213 1.69347 3.38663 1.55387C4.03063 1.45107 4.53983 1.46837 5.04943 1.56937L5.92003 0.69877C5.40103 0.53807 4.86693 0.447266 4.36693 0.447266V0.447266ZM6.84083 2.27327C7.27083 2.56987 7.55744 2.87447 7.72224 2.93027C8.06144 3.04467 8.39183 2.79387 8.39183 2.48487C8.39183 2.15837 8.30664 2.12337 8.11394 1.93707C7.95994 1.78827 7.78723 1.64667 7.59993 1.51427L6.84083 2.27327V2.27327ZM4.80423 6.34987C4.95433 5.58227 3.74373 5.32387 3.58183 6.18577C3.51183 6.55847 3.80233 6.83627 4.11683 6.88687C4.28003 6.91307 4.47094 6.86377 4.58654 6.76877C4.75954 6.62657 4.75943 6.57907 4.80423 6.34987V6.34987ZM4.20263 4.91146C4.55333 4.90866 4.87184 5.05706 5.11054 5.25146C5.27374 5.38436 5.35132 5.51047 5.61032 5.51577C6.00292 5.52357 6.60053 4.96897 5.56853 4.28217C5.41633 4.18097 5.25193 4.09797 5.08013 4.03407L4.20263 4.91146ZM3.85603 2.17267C3.32763 2.18207 2.56424 2.45327 2.13224 2.71797C1.90064 2.85977 1.33843 3.23937 1.20613 3.47937C0.949625 3.94447 1.44514 4.46227 1.94974 4.17517C2.01294 4.13917 2.19474 3.96367 2.25974 3.90957C2.55114 3.66717 2.88884 3.47447 3.26644 3.35237L4.45323 2.16557C4.26543 2.15687 4.06753 2.15927 3.85603 2.17267V2.17267ZM5.57952 3.53467C5.87032 3.68267 6.13004 3.87127 6.34484 4.08177C6.90154 4.62737 7.66204 3.78577 7.02894 3.28717C6.91814 3.19997 6.86673 3.12497 6.73263 3.02927C6.60033 2.93497 6.47143 2.84857 6.34413 2.77007L5.57952 3.53467V3.53467Z" fill="var(--c20)"/>
<path fill-rule="evenodd" clip-rule="evenodd" d="M1.54503 5.52708L2.39753 4.67468L2.40093 4.67118L6.90813 0.163875C7.12663 -0.054625 7.48413 -0.054625 7.70253 0.163875H7.70262C7.92102 0.382375 7.92102 0.739879 7.70262 0.958279L6.85012 1.81068L6.84682 1.81418L2.33952 6.32137C2.12102 6.53987 1.76352 6.53987 1.54512 6.32137H1.54503C1.32673 6.10297 1.32673 5.74548 1.54503 5.52708Z" fill="var(--c20)"/>
</svg>
