<svg viewBox="0 0 11 8" fill="none" xmlns="http://www.w3.org/2000/svg">
<path fill-rule="evenodd" clip-rule="evenodd" d="M5.41919 0C4.93529 0 4.50588 0.0179086 4.04388 0.0838086C3.65008 0.139909 3.25758 0.254705 2.89898 0.365205C1.97638 0.649405 0.788289 1.37111 0.189389 2.01311C-0.290211 2.52721 0.216089 3.2929 0.871889 3.0786C1.05269 3.0195 1.1385 2.89421 1.2791 2.77051C2.052 2.09051 3.11739 1.5464 4.20269 1.3732C5.45579 1.1732 6.29749 1.33971 7.37499 1.69771C8.55939 2.09131 9.25978 2.972 9.58308 3.0812C10.004 3.2233 10.414 2.9121 10.414 2.5286C10.414 2.1234 10.3083 2.08011 10.0691 1.84881C8.954 0.770609 7.04249 0 5.41919 0V0ZM5.96189 7.3249C6.14809 6.3724 4.6458 6.05171 4.4449 7.12131C4.358 7.58381 4.71858 7.92851 5.10888 7.99131C5.31138 8.02391 5.54829 7.9627 5.69179 7.8448C5.90639 7.6684 5.90629 7.6094 5.96189 7.3249ZM4.8707 5.5827C5.4392 5.4446 5.96919 5.6582 6.34199 5.9619C6.54449 6.1268 6.64088 6.2833 6.96228 6.2898C7.44938 6.2995 8.19109 5.6113 6.91038 4.7591C6.03479 4.1765 4.83618 4.0842 3.90638 4.5429C2.00828 5.4792 3.01839 6.4899 3.67189 6.265C3.89839 6.187 4.00639 6.0106 4.21079 5.8679C4.43989 5.708 4.5717 5.6553 4.8707 5.5827ZM4.78519 2.1411C4.12939 2.1528 3.18219 2.4893 2.64599 2.8178C2.35859 2.9938 1.66089 3.465 1.49669 3.7628C1.17849 4.34 1.79329 4.9825 2.41949 4.6262C2.49799 4.5815 2.72359 4.3637 2.80419 4.2966C3.48829 3.7277 4.37749 3.3793 5.41949 3.4265C6.39069 3.4705 7.27349 3.9221 7.87369 4.5103C8.56459 5.1874 9.50839 4.14301 8.72259 3.52421C8.58519 3.41601 8.52139 3.32281 8.35499 3.20421C7.20069 2.38121 6.25669 2.0478 4.78519 2.1411Z" fill="#201E1E"/>
</svg>
