<svg viewBox="0 0 9 8" fill="none" xmlns="http://www.w3.org/2000/svg">
<path fill-rule="evenodd" clip-rule="evenodd" d="M3.3244 7.94363L5.1707 7.37363C5.8077 7.17703 5.9913 6.52023 5.5787 5.91403L4.3829 4.15723C3.9703 3.55103 3.1117 3.21603 2.4747 3.41273L0.628402 3.98263C-0.00849804 4.17933 -0.192096 4.83613 0.220404 5.44223L1.4162 7.19913C1.8288 7.80523 2.6875 8.14023 3.3244 7.94363ZM3.0638 7.32023L4.6396 6.83373C5.0148 6.71793 5.1229 6.33113 4.8799 5.97413L3.8593 4.47453C3.6163 4.11753 3.1105 3.92022 2.7353 4.03602L1.15951 4.52253C0.784305 4.63833 0.676203 5.02523 0.919203 5.38223L1.9398 6.88173C2.1828 7.23873 2.6886 7.43613 3.0638 7.32023V7.32023Z" fill="url(#paint0_linear_302_24)"/>
<path fill-rule="evenodd" clip-rule="evenodd" d="M3.4669 7.73326L5.3132 7.16336C5.9502 6.96666 6.13381 6.30986 5.72121 5.70376L4.52541 3.94685C4.11281 3.34075 3.2542 3.00576 2.6172 3.20236L0.770904 3.77236C0.134004 3.96896 -0.0495942 4.62575 0.362906 5.23185L1.55871 6.98876C1.97131 7.59496 2.83 7.92996 3.4669 7.73326V7.73326ZM3.2063 7.10996L4.7821 6.62345C5.1573 6.50765 5.2654 6.12076 5.0224 5.76376L4.0018 4.26425C3.7588 3.90725 3.253 3.70986 2.8778 3.82576L1.30201 4.31225C0.926807 4.42805 0.818705 4.81485 1.0617 5.17185L2.0823 6.67145C2.3253 7.02845 2.8311 7.22576 3.2063 7.10996V7.10996Z" fill="url(#paint1_linear_302_24)"/>
<path fill-rule="evenodd" clip-rule="evenodd" d="M3.6094 7.52292L5.4557 6.95292C6.0927 6.75632 6.27631 6.09951 5.86371 5.49341L4.66791 3.73652C4.25531 3.13032 3.3967 2.79532 2.7597 2.99202L0.913406 3.56192C0.276506 3.75862 0.0929076 4.41542 0.505408 5.02152L1.70121 6.77841C2.11381 7.38451 2.9725 7.71952 3.6094 7.52292V7.52292ZM3.34881 6.89952L4.92461 6.41301C5.29981 6.29721 5.4079 5.91041 5.1649 5.55341L4.1443 4.05381C3.9013 3.69681 3.3955 3.49952 3.0203 3.61532L1.44451 4.10181C1.06931 4.21761 0.961206 4.60452 1.20421 4.96152L2.2248 6.46101C2.4678 6.81801 2.97361 7.01542 3.34881 6.89952V6.89952Z" fill="url(#paint2_linear_302_24)"/>
<path fill-rule="evenodd" clip-rule="evenodd" d="M3.7519 7.31254L5.5982 6.74264C6.2352 6.54594 6.41881 5.88914 6.00621 5.28304L4.81041 3.52614C4.39781 2.92004 3.53921 2.58504 2.90221 2.78164L1.05591 3.35164C0.419007 3.54824 0.235409 4.20504 0.647909 4.81124L1.84371 6.56804C2.25631 7.17424 3.115 7.50924 3.7519 7.31254ZM3.49131 6.68924L5.06711 6.20275C5.44231 6.08695 5.5504 5.70004 5.3074 5.34304L4.28681 3.84354C4.04381 3.48654 3.538 3.28914 3.1628 3.40504L1.58701 3.89155C1.21181 4.00735 1.10371 4.39414 1.34671 4.75114L2.3673 6.25074C2.6103 6.60774 3.11611 6.80504 3.49131 6.68924V6.68924Z" fill="url(#paint3_linear_302_24)"/>
<path fill-rule="evenodd" clip-rule="evenodd" d="M3.89441 7.10225L5.7407 6.53225C6.3777 6.33565 6.56131 5.67886 6.14871 5.07276L4.95291 3.31586C4.54031 2.70976 3.68171 2.37465 3.04471 2.57135L1.19841 3.14135C0.561509 3.33795 0.377911 3.99476 0.790411 4.60086L1.98621 6.35776C2.39881 6.96386 3.25751 7.29885 3.89441 7.10225ZM3.63381 6.47885L5.20961 5.99246C5.58481 5.87656 5.6929 5.48976 5.4499 5.13276L4.42931 3.63315C4.18631 3.27615 3.68051 3.07885 3.30541 3.19465L1.72951 3.68116C1.35431 3.79696 1.24621 4.18386 1.48921 4.54086L2.5099 6.04036C2.7528 6.39736 3.25861 6.59475 3.63381 6.47885V6.47885Z" fill="url(#paint4_linear_302_24)"/>
<path fill-rule="evenodd" clip-rule="evenodd" d="M4.03691 6.89183L5.88321 6.32193C6.52021 6.12523 6.70381 5.46843 6.29121 4.86233L5.09541 3.10543C4.68281 2.49933 3.82421 2.16433 3.18721 2.36093L1.34091 2.93093C0.704011 3.12763 0.520413 3.78433 0.932913 4.39053L2.12871 6.14743C2.54131 6.75353 3.40001 7.08853 4.03691 6.89183ZM3.77631 6.26853L5.35211 5.78203C5.72731 5.66623 5.83541 5.27933 5.59241 4.92233L4.57181 3.42283C4.32881 3.06583 3.82301 2.86853 3.44791 2.98433L1.87201 3.47083C1.49681 3.58663 1.38871 3.97343 1.63171 4.33043L2.65241 5.83003C2.89531 6.18703 3.40111 6.38433 3.77631 6.26853V6.26853Z" fill="url(#paint5_linear_302_24)"/>
<path fill-rule="evenodd" clip-rule="evenodd" d="M4.53601 6.73786L6.8682 6.01786C7.6728 5.76946 7.9047 4.93986 7.3836 4.17416L5.87301 1.95496C5.35191 1.18926 4.26721 0.766164 3.46271 1.01446L1.13051 1.73446C0.325908 1.98286 0.0939077 2.81256 0.615108 3.57816L2.12561 5.79746C2.64671 6.56306 3.73141 6.98626 4.53601 6.73786V6.73786Z" fill="url(#paint6_linear_302_24)"/>
<path fill-rule="evenodd" clip-rule="evenodd" d="M4.99702 6.03032L7.32921 5.31032C8.13381 5.06192 8.36571 4.23232 7.84461 3.46662L6.33412 1.24742C5.81292 0.48172 4.72832 0.0585217 3.92372 0.306922L1.59151 1.02692C0.786908 1.27532 0.555008 2.10501 1.07611 2.87061L2.58662 5.08992C3.10782 5.85552 4.19242 6.27872 4.99702 6.03032V6.03032ZM4.66781 5.24292L6.65841 4.62842C7.13231 4.48212 7.26891 3.99342 6.96191 3.54242L5.67271 1.64822C5.36571 1.19732 4.72681 0.948014 4.25291 1.09431L2.26241 1.70882C1.78841 1.85522 1.65181 2.34382 1.95881 2.79482L3.24811 4.68902C3.55501 5.13992 4.19391 5.38922 4.66781 5.24292Z" fill="url(#paint7_linear_302_24)"/>
<path fill-rule="evenodd" clip-rule="evenodd" d="M4.67751 6.50206L7.00971 5.78206C7.81431 5.53366 8.04621 4.70396 7.52511 3.93836L6.01451 1.71906C5.49341 0.953463 4.40871 0.530263 3.60411 0.778663L1.2719 1.49866C0.467402 1.74706 0.235409 2.57666 0.756609 3.34236L2.26711 5.56156C2.78821 6.32726 3.87291 6.75046 4.67751 6.50206V6.50206ZM4.3482 5.71466L6.33881 5.10006C6.81271 4.95376 6.9493 4.46516 6.6424 4.01416L5.3531 2.11996C5.0462 1.66906 4.40731 1.41976 3.93341 1.56606L1.9428 2.18056C1.4689 2.32686 1.33231 2.81556 1.63921 3.26656L2.9285 5.16076C3.2355 5.61166 3.8743 5.86096 4.3482 5.71466V5.71466Z" fill="url(#paint8_linear_302_24)"/>
<path fill-rule="evenodd" clip-rule="evenodd" d="M4.8373 6.26612L7.16951 5.54612C7.97401 5.29772 8.206 4.46812 7.6848 3.70252L6.1743 1.48322C5.6532 0.717624 4.5685 0.294423 3.7639 0.542823L1.4317 1.26282C0.627103 1.51112 0.395203 2.34082 0.916303 3.10642L2.4269 5.32572C2.948 6.09132 4.0327 6.51452 4.8373 6.26612ZM4.508 5.47872L6.4986 4.86422C6.9725 4.71792 7.1091 4.22922 6.8022 3.77832L5.5129 1.88412C5.2059 1.43312 4.5671 1.18393 4.0932 1.33023L2.1026 1.94472C1.6287 2.09102 1.4921 2.57972 1.799 3.03062L3.0883 4.92483C3.3952 5.37583 4.0341 5.62502 4.508 5.47872Z" fill="url(#paint9_linear_302_24)"/>
<path fill-rule="evenodd" clip-rule="evenodd" d="M3.76601 5.51244L4.25351 5.36194C4.31191 5.34384 4.35591 5.31124 4.38381 5.26944C4.45811 5.19084 4.46281 5.06653 4.38301 4.94933L4.06721 4.48544C3.95831 4.32544 3.73161 4.23694 3.56341 4.28884L3.07591 4.43933C3.01751 4.45733 2.97361 4.49004 2.94561 4.53174C2.87131 4.61034 2.86671 4.73474 2.94651 4.85194L3.26211 5.31584C3.37111 5.47584 3.59781 5.56424 3.76601 5.51244ZM3.40191 3.89313C3.47621 3.81453 3.48091 3.69014 3.40111 3.57304L3.08531 3.10904C2.97641 2.94904 2.74971 2.86054 2.58151 2.91254L2.09401 3.06304C2.03561 3.08104 1.99162 3.11374 1.96372 3.15544C1.88942 3.23404 1.88482 3.35844 1.96452 3.47554L2.28031 3.93944C2.38921 4.09954 2.61592 4.18793 2.78412 4.13603L3.27162 3.98554C3.33002 3.96754 3.37401 3.93483 3.40191 3.89313ZM4.31531 3.66094L4.80281 3.51044C4.86121 3.49234 4.90521 3.45974 4.93311 3.41794C5.00741 3.33944 5.01211 3.21504 4.93231 3.09784L4.61662 2.63393C4.50772 2.47393 4.28091 2.38544 4.11271 2.43734L3.62521 2.58784C3.56691 2.60594 3.52281 2.63854 3.49491 2.68024C3.42061 2.75884 3.41601 2.88324 3.49571 3.00044L3.81151 3.46433C3.92041 3.62433 4.14721 3.71284 4.31531 3.66094ZM5.91501 4.79433C5.98931 4.71583 5.99401 4.59144 5.91421 4.47414L5.59851 4.01034C5.48951 3.85024 5.26281 3.76184 5.09461 3.81374L4.60711 3.96414C4.54871 3.98224 4.50481 4.01494 4.47681 4.05664C4.40261 4.13524 4.39791 4.25963 4.47771 4.37683L4.79341 4.84074C4.90231 5.00074 5.12901 5.08924 5.29721 5.03724L5.78471 4.88674C5.84311 4.86874 5.88711 4.83603 5.91501 4.79433V4.79433Z" fill="url(#paint10_linear_302_24)"/>
<path fill-rule="evenodd" clip-rule="evenodd" d="M3.82611 5.41366L4.31351 5.26315C4.37191 5.24515 4.41591 5.21246 4.44381 5.17086C4.51821 5.09226 4.52281 4.96785 4.44301 4.85065L4.12721 4.38675C4.01831 4.22665 3.79161 4.13825 3.62341 4.19015L3.13591 4.34065C3.07751 4.35865 3.03361 4.39135 3.00561 4.43305C2.93131 4.51165 2.92661 4.63606 3.00651 4.75326L3.32221 5.21715C3.43111 5.37715 3.65781 5.46566 3.82611 5.41366ZM3.46191 3.79446C3.53621 3.71586 3.54091 3.59155 3.46111 3.47425L3.14542 3.01046C3.03652 2.85036 2.80971 2.76196 2.64151 2.81376L2.15412 2.96435C2.09572 2.98235 2.05172 3.01505 2.02372 3.05675C1.94942 3.13535 1.94481 3.25966 2.02461 3.37696L2.34031 3.84076C2.44921 4.00086 2.67592 4.08936 2.84412 4.03736L3.33162 3.88685C3.39002 3.86885 3.43401 3.83616 3.46191 3.79446ZM4.37531 3.56215L4.86281 3.41166C4.92121 3.39366 4.96521 3.36095 4.99321 3.31935C5.06741 3.24075 5.07211 3.11636 4.99231 2.99916L4.67662 2.53526C4.56772 2.37526 4.34101 2.28676 4.17281 2.33876L3.68531 2.48916C3.62691 2.50726 3.58291 2.53996 3.55491 2.58156C3.48071 2.66016 3.47602 2.78455 3.55582 2.90175L3.87151 3.36565C3.98041 3.52565 4.20721 3.61415 4.37531 3.56215V3.56215ZM5.97501 4.69565C6.04941 4.61705 6.05401 4.49266 5.97421 4.37546L5.65851 3.91156C5.54951 3.75156 5.32281 3.66306 5.15461 3.71506L4.66711 3.86555C4.60871 3.88355 4.56481 3.91616 4.53681 3.95786C4.46261 4.03646 4.45791 4.16085 4.53771 4.27815L4.85341 4.74196C4.96231 4.90206 5.18911 4.99045 5.35731 4.93855L5.84481 4.78805C5.90311 4.77005 5.94711 4.73735 5.97501 4.69565Z" fill="url(#paint11_linear_302_24)"/>
<path fill-rule="evenodd" clip-rule="evenodd" d="M3.8861 5.31505L4.3736 5.16455C4.432 5.14645 4.4759 5.11385 4.5039 5.07205C4.5782 4.99345 4.5828 4.86915 4.503 4.75185L4.1873 4.28805C4.0784 4.12805 3.8516 4.03955 3.6834 4.09145L3.1959 4.24196C3.1376 4.25996 3.0936 4.29265 3.0657 4.33435C2.9913 4.41295 2.9867 4.53725 3.0665 4.65455L3.3822 5.11845C3.4912 5.27845 3.7179 5.36695 3.8861 5.31505ZM6.0351 4.59696C6.1094 4.51836 6.11411 4.39395 6.03421 4.27675L5.7185 3.81285C5.6096 3.65285 5.38291 3.56435 5.21461 3.61635L4.7272 3.76675C4.6688 3.78485 4.6248 3.81755 4.5969 3.85915C4.5226 3.93775 4.5179 4.06215 4.5977 4.17935L4.9134 4.64325C5.0224 4.80335 5.2491 4.89176 5.4173 4.83986L5.9048 4.68935C5.9632 4.67135 6.0071 4.63866 6.0351 4.59696V4.59696ZM4.43541 3.46355L4.92291 3.31305C4.98121 3.29495 5.0253 3.26235 5.0532 3.22055C5.1275 3.14205 5.1321 3.01765 5.0523 2.90045L4.73661 2.43656C4.62761 2.27656 4.401 2.18805 4.2328 2.23995L3.7453 2.39045C3.6869 2.40855 3.6429 2.44115 3.6149 2.48285C3.5407 2.56145 3.53601 2.68585 3.61581 2.80305L3.9315 3.26696C4.0404 3.42696 4.26721 3.51545 4.43541 3.46355ZM3.5219 3.69575C3.5962 3.61715 3.6009 3.49275 3.5211 3.37565L3.20541 2.91165C3.09651 2.75165 2.86981 2.66315 2.70161 2.71515L2.21411 2.86565C2.15571 2.88365 2.11171 2.91635 2.08371 2.95805C2.00951 3.03665 2.00481 3.16095 2.08461 3.27815L2.4003 3.74205C2.5092 3.90215 2.73591 3.99056 2.90411 3.93866L3.39161 3.78815C3.45001 3.77015 3.494 3.73745 3.5219 3.69575Z" fill="url(#paint12_linear_302_24)"/>
<path fill-rule="evenodd" clip-rule="evenodd" d="M4.99702 6.05931L7.32921 5.33931C8.13381 5.09091 8.36571 4.26131 7.84461 3.49561L6.33412 1.27641C5.81302 0.510711 4.72832 0.0875134 3.92372 0.335913L1.59151 1.05591C0.786908 1.30431 0.555008 2.13401 1.07611 2.89961L2.58671 5.11891C3.10781 5.88451 4.19252 6.30771 4.99702 6.05931V6.05931ZM4.66781 5.27192L6.65841 4.65742C7.13231 4.51112 7.26891 4.02241 6.96191 3.57141L5.67271 1.67721C5.36571 1.22631 4.72691 0.977016 4.25291 1.12332L2.26241 1.73782C1.78851 1.88422 1.65191 2.37281 1.95881 2.82381L3.24811 4.71801C3.55501 5.16891 4.19391 5.41822 4.66781 5.27192Z" fill="url(#paint13_linear_302_24)"/>
<path fill-rule="evenodd" clip-rule="evenodd" d="M5.15681 5.79444L7.48901 5.07454C8.29361 4.82614 8.52551 3.99644 8.00441 3.23084L6.49391 1.01154C5.97271 0.245944 4.88811 -0.177257 4.08351 0.0711434L1.75131 0.791143C0.946713 1.03954 0.714813 1.86914 1.23591 2.63474L2.74641 4.85404C3.26761 5.61964 4.35221 6.04284 5.15681 5.79444ZM4.82761 5.00704L6.81811 4.39254C7.29211 4.24624 7.42871 3.75764 7.12171 3.30664L5.83241 1.41244C5.52551 0.961442 4.88661 0.712236 4.41271 0.858536L2.42211 1.47304C1.94821 1.61934 1.81161 2.10804 2.11861 2.55894L3.40781 4.45314C3.71481 4.90414 4.35371 5.15334 4.82761 5.00704Z" fill="url(#paint14_linear_302_24)"/>
<defs>
<linearGradient id="paint0_linear_302_24" x1="3.2687" y1="3.19973" x2="2.2056" y2="8.05683" gradientUnits="userSpaceOnUse">
<stop stop-color="#00A8D9"/>
<stop offset="1" stop-color="#021E22"/>
</linearGradient>
<linearGradient id="paint1_linear_302_24" x1="3.4112" y1="2.98936" x2="2.3481" y2="7.84656" gradientUnits="userSpaceOnUse">
<stop stop-color="#00AFEF"/>
<stop offset="1" stop-color="#021E22"/>
</linearGradient>
<linearGradient id="paint2_linear_302_24" x1="3.55371" y1="2.77902" x2="2.49061" y2="7.63622" gradientUnits="userSpaceOnUse">
<stop stop-color="#009BDB"/>
<stop offset="1" stop-color="#021E22"/>
</linearGradient>
<linearGradient id="paint3_linear_302_24" x1="3.69621" y1="2.56864" x2="2.63311" y2="7.42584" gradientUnits="userSpaceOnUse">
<stop stop-color="#247EDE"/>
<stop offset="1" stop-color="#021E22"/>
</linearGradient>
<linearGradient id="paint4_linear_302_24" x1="3.83871" y1="2.35835" x2="2.77561" y2="7.21555" gradientUnits="userSpaceOnUse">
<stop stop-color="#395DA6"/>
<stop offset="1" stop-color="#021E22"/>
</linearGradient>
<linearGradient id="paint5_linear_302_24" x1="3.98121" y1="2.14793" x2="2.91811" y2="7.00513" gradientUnits="userSpaceOnUse">
<stop stop-color="#0041C4"/>
<stop offset="1" stop-color="#021E22"/>
</linearGradient>
<linearGradient id="paint6_linear_302_24" x1="4.46571" y1="0.745464" x2="3.12281" y2="6.88096" gradientUnits="userSpaceOnUse">
<stop stop-color="#98354F"/>
<stop offset="1" stop-color="#171515"/>
</linearGradient>
<linearGradient id="paint7_linear_302_24" x1="4.92671" y1="0.0379216" x2="3.58381" y2="6.17342" gradientUnits="userSpaceOnUse">
<stop stop-color="#F5483D"/>
<stop offset="1" stop-color="#B63D3D"/>
</linearGradient>
<linearGradient id="paint8_linear_302_24" x1="4.60711" y1="0.509663" x2="3.26421" y2="6.64506" gradientUnits="userSpaceOnUse">
<stop stop-color="#EE314B"/>
<stop offset="1" stop-color="#B3314D"/>
</linearGradient>
<linearGradient id="paint9_linear_302_24" x1="4.7669" y1="0.273723" x2="3.424" y2="6.40922" gradientUnits="userSpaceOnUse">
<stop stop-color="#F58634"/>
<stop offset="1" stop-color="#D0373B"/>
</linearGradient>
<linearGradient id="paint10_linear_302_24" x1="4.30351" y1="2.33874" x2="3.59441" y2="5.64534" gradientUnits="userSpaceOnUse">
<stop stop-color="#EE314B"/>
<stop offset="1" stop-color="#B3314D"/>
</linearGradient>
<linearGradient id="paint11_linear_302_24" x1="4.31011" y1="2.40226" x2="3.75201" y2="5.42596" gradientUnits="userSpaceOnUse">
<stop stop-color="#F58634"/>
<stop offset="1" stop-color="#D0373B"/>
</linearGradient>
<linearGradient id="paint12_linear_302_24" x1="4.26601" y1="2.32765" x2="3.73851" y2="5.41645" gradientUnits="userSpaceOnUse">
<stop stop-color="#F5B33D"/>
<stop offset="1" stop-color="#EF5045"/>
</linearGradient>
<linearGradient id="paint13_linear_302_24" x1="4.92671" y1="0.0669133" x2="3.58381" y2="6.20241" gradientUnits="userSpaceOnUse">
<stop stop-color="#ED2F59"/>
<stop offset="1" stop-color="#171515"/>
</linearGradient>
<linearGradient id="paint14_linear_302_24" x1="5.08651" y1="-0.197957" x2="3.74361" y2="5.93754" gradientUnits="userSpaceOnUse">
<stop stop-color="#B3314D"/>
<stop offset="1" stop-color="#171515"/>
</linearGradient>
</defs>
</svg>
